<svg width="222" height="222" viewBox="0 0 222 222" fill="none" xmlns="http://www.w3.org/2000/svg">
<rect x="22" y="22" width="200" height="200" rx="40" fill="#A55307"/>
<rect x="4" y="4" width="208" height="208" rx="44" fill="#C75F00" stroke="#4D2500" stroke-width="8"/>
<path d="M150.837 135.226C152.75 136.33 153.419 138.788 152.165 140.606C147.711 147.067 141.787 152.404 134.858 156.167C126.754 160.567 117.592 162.64 108.383 162.157C99.1747 161.675 90.2791 158.655 82.6797 153.432C75.0804 148.209 69.0733 140.986 65.3228 132.563C61.5722 124.139 60.2242 114.842 61.4278 105.699C62.6314 96.5572 66.3397 87.9259 72.1427 80.7597C77.9458 73.5936 85.6175 68.1717 94.3097 65.0937C101.742 62.4618 109.672 61.6311 117.454 62.644C119.644 62.9291 121.023 65.0701 120.564 67.2309L117.029 83.8594C116.57 86.0203 114.442 87.3654 112.235 87.2563C108.994 87.0959 105.738 87.5677 102.655 88.6597C98.3087 90.1987 94.4729 92.9096 91.5714 96.4927C88.6699 100.076 86.8157 104.391 86.2139 108.963C85.6121 113.534 86.2861 118.182 88.1614 122.394C90.0367 126.606 93.0402 130.217 96.8399 132.829C100.64 135.44 105.087 136.95 109.692 137.191C114.296 137.433 118.877 136.396 122.929 134.196C125.804 132.635 128.333 130.532 130.383 128.015C131.778 126.303 134.202 125.621 136.115 126.726L150.837 135.226Z" fill="white"/>
<path d="M117.988 56.3093C118.522 53.2769 122.139 51.9604 124.498 53.9397L153.688 78.4332C156.047 80.4125 155.379 84.203 152.485 85.2561L116.678 98.2889C113.785 99.342 110.836 96.8679 111.371 93.8355L117.988 56.3093Z" fill="white"/>
<path d="M150.837 135.226C152.75 136.33 153.419 138.788 152.165 140.606C147.711 147.067 141.787 152.404 134.858 156.167C126.754 160.567 117.592 162.64 108.383 162.157C99.1747 161.675 90.2791 158.655 82.6797 153.432C75.0804 148.209 69.0733 140.986 65.3228 132.563C61.5722 124.139 60.2242 114.842 61.4278 105.699C62.6314 96.5572 66.3397 87.9259 72.1427 80.7597C77.9458 73.5936 85.6175 68.1717 94.3097 65.0937C101.742 62.4618 109.672 61.6311 117.454 62.644C119.644 62.9291 121.023 65.0701 120.564 67.2309L117.029 83.8594C116.57 86.0203 114.442 87.3654 112.235 87.2563C108.994 87.0959 105.738 87.5677 102.655 88.6597C98.3087 90.1987 94.4729 92.9096 91.5714 96.4927C88.6699 100.076 86.8157 104.391 86.2139 108.963C85.6121 113.534 86.2861 118.182 88.1614 122.394C90.0367 126.606 93.0402 130.217 96.8399 132.829C100.64 135.44 105.087 136.95 109.692 137.191C114.296 137.433 118.877 136.396 122.929 134.196C125.804 132.635 128.333 130.532 130.383 128.015C131.778 126.303 134.202 125.621 136.115 126.726L150.837 135.226Z" stroke="#4D2500" stroke-width="8"/>
<path d="M117.988 56.3093C118.522 53.2769 122.139 51.9604 124.498 53.9397L153.688 78.4332C156.047 80.4125 155.379 84.203 152.485 85.2561L116.678 98.2889C113.785 99.342 110.836 96.8679 111.371 93.8355L117.988 56.3093Z" stroke="#4D2500" stroke-width="8"/>
<path d="M107 66.4L117.335 65.711C119.189 65.5874 120.713 64.2032 121.015 62.3696L121.57 59L128.234 68.6637C129.021 69.8052 129.161 71.2728 128.603 72.5424L121.55 88.608C120.912 90.0614 119.475 91 117.888 91H115.94L116.524 88.0035C117.021 85.4571 114.999 83.1191 112.408 83.2425L107 83.5V66.4Z" fill="white"/>
</svg>
